<mxfile host="app.diagrams.net" modified="2023-07-26T08:55:24.144Z" agent="Mozilla/5.0 (Windows NT 10.0; Win64; x64) AppleWebKit/537.36 (KHTML, like Gecko) Chrome/114.0.0.0 Safari/537.36" version="21.6.5" etag="Qpi6SaFp7TpsRN91rO5e" type="github">
  <diagram name="第 1 页" id="L1H03s6PCgN_zLBSYj0T">
    <mxGraphModel>
      <root>
        <mxCell id="0" />
        <mxCell id="1" parent="0" />
      </root>
    </mxGraphModel>
  </diagram>
</mxfile>
